PathFileType	4	(X/Y/Z)	E:/New_biomech_experiments/27_06_2024_Shreyas_Arm26_updated ground/Afternoon session/Neeraj_PP_27_6_24_elbow_flexion_t01.trc	
DataRate	CameraRate	NumFrames	NumMarkers	Units	OrigDataRate	OrigDataStartFrame	OrigNumFrames	
120.00	120.00	71	4	m	120.00	3263	6524	
Frame#	Time	MarkerSet_r_acromion			MarkerSet_r_humerus_epicondyle			MarkerSet_r_radius_styloid			MarkerSet_RHAND			
		X1	Y1	Z1	X2	Y2	Z2	X3	Y3	Z3	X4	Y4	Z4	

3263	27.183	-0.01063	0.77886	0.23693	-0.00994	0.44689	0.27551	0.11777	0.65444	0.22518	0.12681	0.73394	0.16660 
3264	27.192	-0.01061	0.77885	0.23692	-0.00998	0.44688	0.27552	0.11779	0.65441	0.22518	0.12683	0.73389	0.16657 
3265	27.200	-0.01059	0.77885	0.23691	-0.01001	0.44688	0.27553	0.11781	0.65438	0.22517	0.12686	0.73385	0.16654 
3266	27.208	-0.01057	0.77885	0.23690	-0.01004	0.44688	0.27555	0.11783	0.65435	0.22515	0.12689	0.73381	0.16650 
3267	27.217	-0.01055	0.77884	0.23689	-0.01007	0.44688	0.27557	0.11786	0.65432	0.22514	0.12694	0.73376	0.16645 
3268	27.225	-0.01054	0.77884	0.23687	-0.01009	0.44689	0.27560	0.11789	0.65428	0.22512	0.12699	0.73370	0.16640 
3269	27.233	-0.01052	0.77885	0.23686	-0.01012	0.44689	0.27563	0.11793	0.65425	0.22510	0.12705	0.73365	0.16635 
3270	27.242	-0.01052	0.77885	0.23685	-0.01014	0.44690	0.27567	0.11798	0.65421	0.22508	0.12713	0.73358	0.16631 
3271	27.250	-0.01051	0.77885	0.23683	-0.01016	0.44691	0.27571	0.11803	0.65417	0.22506	0.12721	0.73352	0.16626 
3272	27.258	-0.01051	0.77885	0.23682	-0.01017	0.44692	0.27575	0.11809	0.65413	0.22504	0.12729	0.73345	0.16621 
3273	27.267	-0.01051	0.77884	0.23680	-0.01019	0.44693	0.27580	0.11815	0.65409	0.22502	0.12738	0.73338	0.16615 
3274	27.275	-0.01051	0.77884	0.23678	-0.01020	0.44693	0.27584	0.11820	0.65405	0.22500	0.12747	0.73331	0.16610 
3275	27.283	-0.01050	0.77884	0.23677	-0.01020	0.44694	0.27589	0.11826	0.65402	0.22499	0.12755	0.73325	0.16605 
3276	27.292	-0.01049	0.77884	0.23675	-0.01021	0.44695	0.27594	0.11831	0.65398	0.22497	0.12763	0.73320	0.16601 
3277	27.300	-0.01048	0.77884	0.23674	-0.01021	0.44696	0.27598	0.11837	0.65395	0.22497	0.12770	0.73315	0.16598 
3278	27.308	-0.01047	0.77884	0.23673	-0.01020	0.44697	0.27602	0.11841	0.65393	0.22496	0.12776	0.73311	0.16596 
3279	27.317	-0.01046	0.77884	0.23671	-0.01020	0.44698	0.27606	0.11845	0.65391	0.22495	0.12780	0.73308	0.16594 
3280	27.325	-0.01045	0.77885	0.23670	-0.01020	0.44699	0.27609	0.11849	0.65389	0.22495	0.12784	0.73306	0.16593 
3281	27.333	-0.01044	0.77886	0.23669	-0.01019	0.44700	0.27612	0.11852	0.65388	0.22494	0.12786	0.73305	0.16592 
3282	27.342	-0.01044	0.77887	0.23668	-0.01018	0.44701	0.27613	0.11854	0.65388	0.22493	0.12788	0.73304	0.16591 
3283	27.350	-0.01043	0.77888	0.23667	-0.01018	0.44702	0.27614	0.11856	0.65389	0.22493	0.12789	0.73303	0.16591 
3284	27.358	-0.01043	0.77889	0.23666	-0.01017	0.44703	0.27615	0.11858	0.65389	0.22492	0.12790	0.73303	0.16590 
3285	27.367	-0.01043	0.77890	0.23666	-0.01015	0.44703	0.27615	0.11860	0.65390	0.22491	0.12791	0.73304	0.16589 
3286	27.375	-0.01043	0.77891	0.23665	-0.01014	0.44704	0.27615	0.11862	0.65391	0.22490	0.12792	0.73305	0.16588 
3287	27.383	-0.01043	0.77892	0.23665	-0.01013	0.44704	0.27614	0.11864	0.65392	0.22490	0.12793	0.73305	0.16587 
3288	27.392	-0.01044	0.77892	0.23664	-0.01011	0.44703	0.27613	0.11866	0.65393	0.22489	0.12795	0.73306	0.16585 
3289	27.400	-0.01044	0.77893	0.23663	-0.01009	0.44703	0.27613	0.11869	0.65393	0.22488	0.12797	0.73306	0.16585 
3290	27.408	-0.01044	0.77893	0.23663	-0.01007	0.44702	0.27612	0.11873	0.65393	0.22487	0.12800	0.73306	0.16586 
3291	27.417	-0.01044	0.77893	0.23662	-0.01005	0.44701	0.27611	0.11877	0.65393	0.22487	0.12803	0.73306	0.16588 
3292	27.425	-0.01044	0.77893	0.23661	-0.01002	0.44700	0.27610	0.11881	0.65392	0.22487	0.12807	0.73306	0.16591 
3293	27.433	-0.01043	0.77893	0.23661	-0.01000	0.44699	0.27610	0.11886	0.65391	0.22487	0.12810	0.73305	0.16595 
3294	27.442	-0.01042	0.77893	0.23660	-0.00997	0.44699	0.27609	0.11891	0.65391	0.22487	0.12813	0.73305	0.16599 
3295	27.450	-0.01041	0.77894	0.23659	-0.00994	0.44698	0.27609	0.11896	0.65390	0.22487	0.12816	0.73305	0.16602 
3296	27.458	-0.01040	0.77894	0.23658	-0.00991	0.44698	0.27609	0.11900	0.65390	0.22487	0.12820	0.73305	0.16604 
3297	27.467	-0.01038	0.77895	0.23657	-0.00989	0.44698	0.27609	0.11905	0.65391	0.22487	0.12823	0.73304	0.16604 
3298	27.475	-0.01036	0.77897	0.23656	-0.00987	0.44698	0.27610	0.11908	0.65391	0.22486	0.12826	0.73304	0.16601 
3299	27.483	-0.01035	0.77898	0.23655	-0.00985	0.44698	0.27611	0.11912	0.65392	0.22485	0.12829	0.73304	0.16598 
3300	27.492	-0.01033	0.77899	0.23654	-0.00983	0.44699	0.27613	0.11916	0.65392	0.22483	0.12834	0.73303	0.16594 
3301	27.500	-0.01030	0.77900	0.23652	-0.00980	0.44700	0.27615	0.11921	0.65391	0.22481	0.12839	0.73302	0.16590 
3302	27.508	-0.01027	0.77901	0.23650	-0.00978	0.44701	0.27617	0.11928	0.65390	0.22480	0.12845	0.73300	0.16588 
3303	27.517	-0.01024	0.77903	0.23649	-0.00975	0.44702	0.27620	0.11935	0.65388	0.22478	0.12852	0.73297	0.16588 
3304	27.525	-0.01020	0.77904	0.23647	-0.00972	0.44702	0.27623	0.11944	0.65385	0.22476	0.12860	0.73294	0.16590 
3305	27.533	-0.01016	0.77905	0.23645	-0.00969	0.44703	0.27625	0.11954	0.65381	0.22475	0.12869	0.73290	0.16594 
3306	27.542	-0.01011	0.77907	0.23644	-0.00966	0.44703	0.27626	0.11964	0.65377	0.22474	0.12878	0.73285	0.16600 
3307	27.550	-0.01006	0.77908	0.23643	-0.00963	0.44703	0.27627	0.11975	0.65372	0.22473	0.12889	0.73281	0.16606 
3308	27.558	-0.01002	0.77910	0.23642	-0.00961	0.44703	0.27626	0.11986	0.65367	0.22472	0.12899	0.73277	0.16612 
3309	27.567	-0.00998	0.77912	0.23641	-0.00958	0.44703	0.27624	0.11995	0.65363	0.22472	0.12910	0.73273	0.16617 
3310	27.575	-0.00994	0.77913	0.23640	-0.00957	0.44702	0.27621	0.12004	0.65359	0.22472	0.12921	0.73270	0.16621 
3311	27.583	-0.00991	0.77915	0.23640	-0.00955	0.44702	0.27616	0.12012	0.65356	0.22471	0.12932	0.73268	0.16624 
3312	27.592	-0.00989	0.77917	0.23640	-0.00953	0.44701	0.27610	0.12019	0.65354	0.22471	0.12942	0.73267	0.16627 
3313	27.600	-0.00986	0.77918	0.23640	-0.00951	0.44700	0.27602	0.12024	0.65353	0.22471	0.12951	0.73267	0.16630 
3314	27.608	-0.00985	0.77919	0.23640	-0.00949	0.44698	0.27593	0.12029	0.65352	0.22471	0.12958	0.73268	0.16633 
3315	27.617	-0.00983	0.77921	0.23641	-0.00946	0.44696	0.27583	0.12032	0.65352	0.22472	0.12964	0.73269	0.16637 
3316	27.625	-0.00981	0.77921	0.23642	-0.00943	0.44693	0.27572	0.12035	0.65352	0.22472	0.12968	0.73272	0.16642 
3317	27.633	-0.00980	0.77922	0.23643	-0.00940	0.44690	0.27561	0.12036	0.65352	0.22472	0.12970	0.73275	0.16647 
3318	27.642	-0.00979	0.77922	0.23644	-0.00937	0.44686	0.27550	0.12037	0.65353	0.22473	0.12970	0.73278	0.16651 
3319	27.650	-0.00978	0.77922	0.23644	-0.00933	0.44682	0.27539	0.12037	0.65355	0.22473	0.12968	0.73281	0.16654 
3320	27.658	-0.00978	0.77921	0.23645	-0.00930	0.44679	0.27529	0.12036	0.65356	0.22473	0.12965	0.73285	0.16656 
3321	27.667	-0.00978	0.77920	0.23645	-0.00927	0.44675	0.27520	0.12034	0.65358	0.22472	0.12961	0.73288	0.16656 
3322	27.675	-0.00978	0.77919	0.23644	-0.00924	0.44672	0.27513	0.12033	0.65360	0.22471	0.12957	0.73291	0.16654 
3323	27.683	-0.00978	0.77918	0.23644	-0.00921	0.44669	0.27508	0.12031	0.65362	0.22470	0.12953	0.73294	0.16651 
3324	27.692	-0.00978	0.77917	0.23643	-0.00918	0.44667	0.27504	0.12029	0.65365	0.22468	0.12950	0.73296	0.16647 
3325	27.700	-0.00978	0.77917	0.23642	-0.00916	0.44666	0.27502	0.12028	0.65367	0.22465	0.12947	0.73298	0.16642 
3326	27.708	-0.00977	0.77916	0.23640	-0.00914	0.44665	0.27502	0.12027	0.65368	0.22463	0.12944	0.73299	0.16636 
3327	27.717	-0.00976	0.77916	0.23638	-0.00912	0.44666	0.27503	0.12027	0.65370	0.22460	0.12943	0.73299	0.16631 
3328	27.725	-0.00975	0.77916	0.23636	-0.00910	0.44667	0.27506	0.12027	0.65370	0.22456	0.12942	0.73299	0.16626 
3329	27.733	-0.00973	0.77916	0.23634	-0.00909	0.44668	0.27509	0.12028	0.65371	0.22453	0.12941	0.73298	0.16622 
3330	27.742	-0.00971	0.77917	0.23631	-0.00908	0.44670	0.27513	0.12029	0.65371	0.22450	0.12941	0.73297	0.16619 
3331	27.750	-0.00969	0.77918	0.23629	-0.00908	0.44672	0.27518	0.12030	0.65370	0.22448	0.12942	0.73296	0.16615 
3332	27.758	-0.00966	0.77919	0.23626	-0.00907	0.44674	0.27522	0.12032	0.65370	0.22445	0.12942	0.73294	0.16612 
3333	27.767	-0.00963	0.77920	0.23624	-0.00907	0.44676	0.27526	0.12033	0.65369	0.22443	0.12943	0.73293	0.16609 
